<svg xmlns="http://www.w3.org/2000/svg" width="1100" height="700">
<rect width="100%" height="100%" fill="#fcfcfc"/>
<text x="550.0" y="40" text-anchor="middle" font-size="24" fill="#111827">Ships Over Time by Policy Arm</text>
<line x1="90" y1="80" x2="90" y2="620" stroke="#374151" stroke-width="2"/>
<line x1="90" y1="620" x2="1060" y2="620" stroke="#374151" stroke-width="2"/>
<text x="550.0" y="680" text-anchor="middle" font-size="18" fill="#111827">Month</text>
<text x="25" y="350.0" text-anchor="middle" font-size="18" transform="rotate(-90 25 350.0)" fill="#111827">Ships</text>
<line x1="90" y1="80.0" x2="1060" y2="80.0" stroke="#e5e7eb" stroke-width="1"/>
<text x="80" y="85.0" text-anchor="end" font-size="14" fill="#4b5563">2.8</text>
<line x1="90" y1="188.0" x2="1060" y2="188.0" stroke="#e5e7eb" stroke-width="1"/>
<text x="80" y="193.0" text-anchor="end" font-size="14" fill="#4b5563">2.3</text>
<line x1="90" y1="296.0" x2="1060" y2="296.0" stroke="#e5e7eb" stroke-width="1"/>
<text x="80" y="301.0" text-anchor="end" font-size="14" fill="#4b5563">1.7</text>
<line x1="90" y1="404.0" x2="1060" y2="404.0" stroke="#e5e7eb" stroke-width="1"/>
<text x="80" y="409.0" text-anchor="end" font-size="14" fill="#4b5563">1.1</text>
<line x1="90" y1="512.0" x2="1060" y2="512.0" stroke="#e5e7eb" stroke-width="1"/>
<text x="80" y="517.0" text-anchor="end" font-size="14" fill="#4b5563">0.6</text>
<line x1="90" y1="620.0" x2="1060" y2="620.0" stroke="#e5e7eb" stroke-width="1"/>
<text x="80" y="625.0" text-anchor="end" font-size="14" fill="#4b5563">0.0</text>
<polyline fill="none" stroke="#0f766e" stroke-width="3" points="90.00,414.67 98.15,397.80 106.30,379.82 114.45,360.73 122.61,340.50 130.76,319.13 138.91,296.65 147.06,273.09 155.21,248.49 163.36,222.93 171.51,196.67 179.66,170.19 187.82,144.02 195.97,119.88 204.12,98.98 212.27,84.35 220.42,80.00 228.57,91.66 236.72,118.60 244.87,158.66 253.03,197.11 261.18,232.36 269.33,264.67 277.48,294.28 285.63,321.43 293.78,346.32 301.93,369.13 310.08,390.04 318.24,409.21 326.39,426.78 334.54,442.89 342.69,457.65 350.84,471.19 358.99,483.59 367.14,494.97 375.29,505.39 383.45,514.95 391.60,523.71 399.75,531.74 407.90,539.10 416.05,545.84 424.20,552.03 432.35,557.70 440.50,562.90 448.66,567.66 456.81,572.03 464.96,576.03 473.11,579.70 481.26,583.06 489.41,586.15 497.56,588.97 505.71,591.56 513.87,593.94 522.02,596.12 530.17,598.11 538.32,599.94 546.47,601.62 554.62,603.16 562.77,604.57 570.92,605.86 579.08,607.04 587.23,608.13 595.38,609.12 603.53,610.03 611.68,610.87 619.83,611.64 627.98,612.34 636.13,612.98 644.29,613.57 652.44,614.11 660.59,614.61 668.74,615.06 676.89,615.48 685.04,615.86 693.19,616.21 701.34,616.53 709.50,616.83 717.65,617.10 725.80,617.35 733.95,617.57 742.10,617.78 750.25,617.97 758.40,618.14 766.55,618.30 774.71,618.45 782.86,618.59 791.01,618.71 799.16,618.82 807.31,618.93 815.46,619.02 823.61,619.11 831.76,619.19 839.92,619.26 848.07,619.33 856.22,619.39 864.37,619.45 872.52,619.50 880.67,619.54 888.82,619.59 896.97,619.63 905.13,619.66 913.28,619.70 921.43,619.73 929.58,619.76 937.73,619.78 945.88,619.81 954.03,619.83 962.18,619.85 970.34,619.87 978.49,619.88 986.64,619.90 994.79,619.91 1002.94,619.92 1011.09,619.94 1019.24,619.95 1027.39,619.96 1035.55,619.97 1043.70,619.97 1051.85,619.98 1060.00,619.99"/>
<rect x="90" y="60" width="18" height="18" fill="#0f766e"/>
<text x="114" y="74" font-size="14" fill="#111827">baseline_laissez_faire</text>
<polyline fill="none" stroke="#b45309" stroke-width="3" points="90.00,421.96 98.15,413.26 106.30,404.36 114.45,395.29 122.61,386.07 130.76,376.71 138.91,367.25 147.06,357.70 155.21,348.09 163.36,338.45 171.51,328.82 179.66,319.23 187.82,309.86 195.97,300.82 204.12,292.20 212.27,284.46 220.42,277.88 228.57,272.57 236.72,269.53 244.87,268.91 253.03,271.03 261.18,278.40 269.33,290.34 277.48,306.01 285.63,325.37 293.78,347.22 301.93,369.95 310.08,390.80 318.24,409.90 326.39,427.42 334.54,443.47 342.69,458.19 350.84,471.68 358.99,484.04 367.14,495.38 375.29,505.77 383.45,515.29 391.60,524.02 399.75,532.03 407.90,539.36 416.05,546.09 424.20,552.25 432.35,557.90 440.50,563.08 448.66,567.83 456.81,572.19 464.96,576.18 473.11,579.83 481.26,583.19 489.41,586.26 497.56,589.08 505.71,591.66 513.87,594.03 522.02,596.20 530.17,598.18 538.32,600.01 546.47,601.68 554.62,603.21 562.77,604.62 570.92,605.90 579.08,607.08 587.23,608.17 595.38,609.16 603.53,610.07 611.68,610.90 619.83,611.66 627.98,612.36 636.13,613.01 644.29,613.59 652.44,614.13 660.59,614.63 668.74,615.08 676.89,615.50 685.04,615.88 693.19,616.23 701.34,616.55 709.50,616.84 717.65,617.11 725.80,617.35 733.95,617.58 742.10,617.79 750.25,617.98 758.40,618.15 766.55,618.31 774.71,618.46 782.86,618.59 791.01,618.71 799.16,618.83 807.31,618.93 815.46,619.02 823.61,619.11 831.76,619.19 839.92,619.26 848.07,619.33 856.22,619.39 864.37,619.45 872.52,619.50 880.67,619.55 888.82,619.59 896.97,619.63 905.13,619.67 913.28,619.70 921.43,619.73 929.58,619.76 937.73,619.78 945.88,619.81 954.03,619.83 962.18,619.85 970.34,619.87 978.49,619.88 986.64,619.90 994.79,619.91 1002.94,619.92 1011.09,619.94 1019.24,619.95 1027.39,619.96 1035.55,619.97 1043.70,619.97 1051.85,619.98 1060.00,619.99"/>
<rect x="260" y="60" width="18" height="18" fill="#b45309"/>
<text x="284" y="74" font-size="14" fill="#111827">moderate_taxation</text>
<polyline fill="none" stroke="#2563eb" stroke-width="3" points="90.00,426.52 98.15,422.63 106.30,418.81 114.45,415.07 122.61,411.42 130.76,407.85 138.91,404.40 147.06,401.05 155.21,397.82 163.36,394.73 171.51,391.76 179.66,388.95 187.82,386.28 195.97,383.79 204.12,381.56 212.27,379.61 220.42,377.95 228.57,376.61 236.72,375.84 244.87,375.63 253.03,375.98 261.18,376.96 269.33,378.89 277.48,381.73 285.63,385.42 293.78,389.89 301.93,396.07 310.08,403.73 318.24,412.61 326.39,422.42 334.54,432.90 342.69,443.96 350.84,455.41 358.99,466.99 367.14,478.47 375.29,489.67 383.45,500.45 391.60,510.42 399.75,519.55 407.90,527.93 416.05,535.61 424.20,542.64 432.35,549.10 440.50,555.01 448.66,560.43 456.81,565.40 464.96,569.96 473.11,574.13 481.26,577.96 489.41,581.47 497.56,584.69 505.71,587.63 513.87,590.34 522.02,592.81 530.17,595.08 538.32,597.17 546.47,599.07 554.62,600.82 562.77,602.43 570.92,603.90 579.08,605.24 587.23,606.48 595.38,607.61 603.53,608.65 611.68,609.60 619.83,610.47 627.98,611.27 636.13,612.00 644.29,612.68 652.44,613.29 660.59,613.86 668.74,614.37 676.89,614.85 685.04,615.28 693.19,615.68 701.34,616.05 709.50,616.38 717.65,616.69 725.80,616.97 733.95,617.23 742.10,617.46 750.25,617.68 758.40,617.88 766.55,618.06 774.71,618.23 782.86,618.38 791.01,618.52 799.16,618.65 807.31,618.77 815.46,618.88 823.61,618.98 831.76,619.07 839.92,619.15 848.07,619.22 856.22,619.29 864.37,619.35 872.52,619.41 880.67,619.46 888.82,619.51 896.97,619.55 905.13,619.59 913.28,619.62 921.43,619.66 929.58,619.69 937.73,619.71 945.88,619.74 954.03,619.76 962.18,619.78 970.34,619.80 978.49,619.82 986.64,619.84 994.79,619.85 1002.94,619.87 1011.09,619.88 1019.24,619.89 1027.39,619.90 1035.55,619.91 1043.70,619.92 1051.85,619.93 1060.00,619.94"/>
<rect x="430" y="60" width="18" height="18" fill="#2563eb"/>
<text x="454" y="74" font-size="14" fill="#111827">high_taxation</text>
<polyline fill="none" stroke="#dc2626" stroke-width="3" points="90.00,414.67 98.15,397.80 106.30,379.82 114.45,360.73 122.61,340.50 130.76,319.13 138.91,296.65 147.06,273.09 155.21,248.49 163.36,222.93 171.51,196.67 179.66,170.19 187.82,144.02 195.97,119.88 204.12,98.98 212.27,84.35 220.42,80.00 228.57,91.66 236.72,118.60 244.87,158.66 253.03,197.11 261.18,232.36 269.33,264.67 277.48,294.28 285.63,321.43 293.78,346.32 301.93,369.13 310.08,390.04 318.24,409.21 326.39,426.78 334.54,442.89 342.69,457.65 350.84,471.19 358.99,483.59 367.14,494.97 375.29,505.39 383.45,514.95 391.60,523.71 399.75,531.74 407.90,539.10 416.05,545.84 424.20,552.03 432.35,557.70 440.50,562.90 448.66,567.66 456.81,572.03 464.96,576.03 473.11,579.70 481.26,583.06 489.41,586.15 497.56,588.97 505.71,591.56 513.87,593.94 522.02,596.12 530.17,598.11 538.32,599.94 546.47,601.62 554.62,603.16 562.77,604.57 570.92,605.86 579.08,607.04 587.23,608.13 595.38,609.12 603.53,610.03 611.68,610.87 619.83,611.64 627.98,612.34 636.13,612.98 644.29,613.57 652.44,614.11 660.59,614.61 668.74,615.06 676.89,615.48 685.04,615.86 693.19,616.21 701.34,616.53 709.50,616.83 717.65,617.10 725.80,617.35 733.95,617.57 742.10,617.78 750.25,617.97 758.40,618.14 766.55,618.30 774.71,618.45 782.86,618.59 791.01,618.71 799.16,618.82 807.31,618.93 815.46,619.02 823.61,619.11 831.76,619.19 839.92,619.26 848.07,619.33 856.22,619.39 864.37,619.45 872.52,619.50 880.67,619.54 888.82,619.59 896.97,619.63 905.13,619.66 913.28,619.70 921.43,619.73 929.58,619.76 937.73,619.78 945.88,619.81 954.03,619.83 962.18,619.85 970.34,619.87 978.49,619.88 986.64,619.90 994.79,619.91 1002.94,619.92 1011.09,619.94 1019.24,619.95 1027.39,619.96 1035.55,619.97 1043.70,619.97 1051.85,619.98 1060.00,619.99"/>
<rect x="600" y="60" width="18" height="18" fill="#dc2626"/>
<text x="624" y="74" font-size="14" fill="#111827">hard_capacity_control</text>
<polyline fill="none" stroke="#7c3aed" stroke-width="3" points="90.00,414.67 98.15,397.80 106.30,379.82 114.45,360.73 122.61,340.50 130.76,319.13 138.91,296.65 147.06,273.09 155.21,248.49 163.36,222.93 171.51,196.67 179.66,170.19 187.82,144.02 195.97,119.88 204.12,98.98 212.27,84.35 220.42,80.00 228.57,91.66 236.72,118.60 244.87,158.66 253.03,197.11 261.18,232.36 269.33,264.67 277.48,294.28 285.63,321.43 293.78,346.32 301.93,369.13 310.08,390.04 318.24,409.21 326.39,426.78 334.54,442.89 342.69,457.65 350.84,471.19 358.99,483.59 367.14,494.97 375.29,505.39 383.45,514.95 391.60,523.71 399.75,531.74 407.90,539.10 416.05,545.84 424.20,552.03 432.35,557.70 440.50,562.90 448.66,567.66 456.81,572.03 464.96,576.03 473.11,579.70 481.26,583.06 489.41,586.15 497.56,588.97 505.71,591.56 513.87,593.94 522.02,596.12 530.17,598.11 538.32,599.94 546.47,601.62 554.62,603.16 562.77,604.57 570.92,605.86 579.08,607.04 587.23,608.13 595.38,609.12 603.53,610.03 611.68,610.87 619.83,611.64 627.98,612.34 636.13,612.98 644.29,613.57 652.44,614.11 660.59,614.61 668.74,615.06 676.89,615.48 685.04,615.86 693.19,616.21 701.34,616.53 709.50,616.83 717.65,617.10 725.80,617.35 733.95,617.57 742.10,617.78 750.25,617.97 758.40,618.14 766.55,618.30 774.71,618.45 782.86,618.59 791.01,618.71 799.16,618.82 807.31,618.93 815.46,619.02 823.61,619.11 831.76,619.19 839.92,619.26 848.07,619.33 856.22,619.39 864.37,619.45 872.52,619.50 880.67,619.54 888.82,619.59 896.97,619.63 905.13,619.66 913.28,619.70 921.43,619.73 929.58,619.76 937.73,619.78 945.88,619.81 954.03,619.83 962.18,619.85 970.34,619.87 978.49,619.88 986.64,619.90 994.79,619.91 1002.94,619.92 1011.09,619.94 1019.24,619.95 1027.39,619.96 1035.55,619.97 1043.70,619.97 1051.85,619.98 1060.00,619.99"/>
<rect x="770" y="60" width="18" height="18" fill="#7c3aed"/>
<text x="794" y="74" font-size="14" fill="#111827">weak_capacity_control</text>
<polyline fill="none" stroke="#059669" stroke-width="3" points="90.00,417.20 98.15,403.17 106.30,388.37 114.45,372.79 122.61,356.53 130.76,339.64 138.91,322.15 147.06,304.12 155.21,285.81 163.36,267.68 171.51,249.95 179.66,232.85 187.82,217.37 195.97,204.33 204.12,194.10 212.27,188.30 220.42,189.97 228.57,198.74 236.72,213.81 244.87,235.39 253.03,261.92 261.18,291.54 269.33,318.91 277.48,344.01 285.63,367.01 293.78,388.10 301.93,407.43 310.08,425.15 318.24,441.39 326.39,456.28 334.54,469.93 342.69,482.44 350.84,493.91 358.99,504.42 367.14,514.06 375.29,522.89 383.45,530.99 391.60,538.42 399.75,545.22 407.90,551.46 416.05,557.17 424.20,562.41 432.35,567.22 440.50,571.62 448.66,575.66 456.81,579.36 464.96,582.75 473.11,585.86 481.26,588.71 489.41,591.32 497.56,593.72 505.71,595.92 513.87,597.93 522.02,599.77 530.17,601.46 538.32,603.01 546.47,604.43 554.62,605.74 562.77,606.93 570.92,608.03 579.08,609.03 587.23,609.95 595.38,610.79 603.53,611.56 611.68,612.27 619.83,612.92 627.98,613.52 636.13,614.06 644.29,614.56 652.44,615.02 660.59,615.44 668.74,615.83 676.89,616.18 685.04,616.50 693.19,616.80 701.34,617.07 709.50,617.32 717.65,617.55 725.80,617.76 733.95,617.95 742.10,618.13 750.25,618.29 758.40,618.44 766.55,618.57 774.71,618.70 782.86,618.81 791.01,618.92 799.16,619.01 807.31,619.10 815.46,619.18 823.61,619.25 831.76,619.32 839.92,619.38 848.07,619.44 856.22,619.49 864.37,619.54 872.52,619.58 880.67,619.62 888.82,619.66 896.97,619.69 905.13,619.73 913.28,619.75 921.43,619.78 929.58,619.80 937.73,619.83 945.88,619.85 954.03,619.86 962.18,619.88 970.34,619.90 978.49,619.91 986.64,619.92 994.79,619.93 1002.94,619.95 1011.09,619.96 1019.24,619.96 1027.39,619.97 1035.55,619.98 1043.70,619.99 1051.85,619.99 1060.00,620.00"/>
<rect x="940" y="60" width="18" height="18" fill="#059669"/>
<text x="964" y="74" font-size="14" fill="#111827">moderate_marine_reserve</text>
<polyline fill="none" stroke="#d97706" stroke-width="3" points="90.00,419.22 98.15,407.67 106.30,395.85 114.45,383.81 122.61,371.62 130.76,359.33 138.91,347.03 147.06,334.78 155.21,323.15 163.36,312.32 171.51,302.47 179.66,293.73 187.82,286.25 195.97,280.61 204.12,278.46 212.27,279.83 220.42,284.60 228.57,292.50 236.72,303.15 244.87,316.39 253.03,332.07 261.18,349.51 269.33,368.07 277.48,387.15 285.63,406.25 293.78,424.07 301.93,440.40 310.08,455.37 318.24,469.10 326.39,481.68 334.54,493.21 342.69,503.78 350.84,513.47 358.99,522.35 367.14,530.50 375.29,537.96 383.45,544.80 391.60,551.08 399.75,556.82 407.90,562.09 416.05,566.93 424.20,571.35 432.35,575.41 440.50,579.13 448.66,582.54 456.81,585.67 464.96,588.54 473.11,591.16 481.26,593.57 489.41,595.78 497.56,597.80 505.71,599.66 513.87,601.36 522.02,602.92 530.17,604.35 538.32,605.66 546.47,606.86 554.62,607.96 562.77,608.97 570.92,609.89 579.08,610.74 587.23,611.52 595.38,612.23 603.53,612.88 611.68,613.48 619.83,614.03 627.98,614.53 636.13,614.99 644.29,615.42 652.44,615.80 660.59,616.16 668.74,616.48 676.89,616.78 685.04,617.06 693.19,617.31 701.34,617.54 709.50,617.75 717.65,617.94 725.80,618.12 733.95,618.28 742.10,618.43 750.25,618.57 758.40,618.69 766.55,618.80 774.71,618.91 782.86,619.00 791.01,619.09 799.16,619.17 807.31,619.24 815.46,619.30 823.61,619.36 831.76,619.41 839.92,619.46 848.07,619.50 856.22,619.54 864.37,619.58 872.52,619.61 880.67,619.64 888.82,619.67 896.97,619.69 905.13,619.71 913.28,619.74 921.43,619.75 929.58,619.77 937.73,619.79 945.88,619.80 954.03,619.82 962.18,619.83 970.34,619.84 978.49,619.85 986.64,619.86 994.79,619.87 1002.94,619.88 1011.09,619.89 1019.24,619.89 1027.39,619.90 1035.55,619.91 1043.70,619.91 1051.85,619.92 1060.00,619.92"/>
<rect x="1110" y="60" width="18" height="18" fill="#d97706"/>
<text x="1134" y="74" font-size="14" fill="#111827">strong_marine_reserve</text>
</svg>