<svg xmlns="http://www.w3.org/2000/svg" width="1100" height="700">
<rect width="100%" height="100%" fill="#fcfcfc"/>
<text x="550.0" y="40" text-anchor="middle" font-size="24" fill="#111827">Action Selection Frequency - softmax</text>
<line x1="90" y1="80" x2="90" y2="560" stroke="#374151" stroke-width="2"/>
<line x1="90" y1="560.0" x2="1060" y2="560.0" stroke="#374151" stroke-width="2"/>
<text x="550.0" y="675" text-anchor="middle" font-size="18" fill="#111827">Policy Arm</text>
<text x="25" y="350.0" text-anchor="middle" font-size="18" transform="rotate(-90 25 350.0)" fill="#111827">Selections</text>
<line x1="90" y1="80.0" x2="1060" y2="80.0" stroke="#e5e7eb" stroke-width="1"/>
<text x="80" y="85.0" text-anchor="end" font-size="14" fill="#4b5563">23.0</text>
<line x1="90" y1="176.0" x2="1060" y2="176.0" stroke="#e5e7eb" stroke-width="1"/>
<text x="80" y="181.0" text-anchor="end" font-size="14" fill="#4b5563">18.4</text>
<line x1="90" y1="272.0" x2="1060" y2="272.0" stroke="#e5e7eb" stroke-width="1"/>
<text x="80" y="277.0" text-anchor="end" font-size="14" fill="#4b5563">13.8</text>
<line x1="90" y1="368.0" x2="1060" y2="368.0" stroke="#e5e7eb" stroke-width="1"/>
<text x="80" y="373.0" text-anchor="end" font-size="14" fill="#4b5563">9.2</text>
<line x1="90" y1="464.0" x2="1060" y2="464.0" stroke="#e5e7eb" stroke-width="1"/>
<text x="80" y="469.0" text-anchor="end" font-size="14" fill="#4b5563">4.6</text>
<line x1="90" y1="560.0" x2="1060" y2="560.0" stroke="#e5e7eb" stroke-width="1"/>
<text x="80" y="565.0" text-anchor="end" font-size="14" fill="#4b5563">0.0</text>
<rect x="136.1904761904762" y="455.6521739130435" width="92.38095238095238" height="104.3478260869565" fill="#0f766e"/>
<text x="182.3809523809524" y="447.6521739130435" text-anchor="middle" font-size="12" fill="#111827">5.00</text>
<text x="182.3809523809524" y="595" text-anchor="end" font-size="12" fill="#111827" transform="rotate(-35 182.3809523809524 595)">baseline_laissez_faire</text>
<rect x="274.76190476190476" y="246.95652173913044" width="92.38095238095238" height="313.04347826086956" fill="#b45309"/>
<text x="320.95238095238096" y="238.95652173913044" text-anchor="middle" font-size="12" fill="#111827">15.00</text>
<text x="320.95238095238096" y="595" text-anchor="end" font-size="12" fill="#111827" transform="rotate(-35 320.95238095238096 595)">moderate_taxation</text>
<rect x="413.3333333333333" y="518.2608695652174" width="92.38095238095238" height="41.73913043478262" fill="#2563eb"/>
<text x="459.5238095238095" y="510.2608695652174" text-anchor="middle" font-size="12" fill="#111827">2.00</text>
<text x="459.5238095238095" y="595" text-anchor="end" font-size="12" fill="#111827" transform="rotate(-35 459.5238095238095 595)">high_taxation</text>
<rect x="551.9047619047619" y="434.7826086956522" width="92.38095238095238" height="125.21739130434781" fill="#dc2626"/>
<text x="598.0952380952381" y="426.7826086956522" text-anchor="middle" font-size="12" fill="#111827">6.00</text>
<text x="598.0952380952381" y="595" text-anchor="end" font-size="12" fill="#111827" transform="rotate(-35 598.0952380952381 595)">hard_capacity_control</text>
<rect x="690.4761904761905" y="80.0" width="92.38095238095238" height="480.0" fill="#7c3aed"/>
<text x="736.6666666666666" y="72.0" text-anchor="middle" font-size="12" fill="#111827">23.00</text>
<text x="736.6666666666666" y="595" text-anchor="end" font-size="12" fill="#111827" transform="rotate(-35 736.6666666666666 595)">weak_capacity_control</text>
<rect x="829.047619047619" y="246.95652173913044" width="92.38095238095238" height="313.04347826086956" fill="#059669"/>
<text x="875.2380952380952" y="238.95652173913044" text-anchor="middle" font-size="12" fill="#111827">15.00</text>
<text x="875.2380952380952" y="595" text-anchor="end" font-size="12" fill="#111827" transform="rotate(-35 875.2380952380952 595)">moderate_marine_reserve</text>
<rect x="967.6190476190476" y="434.7826086956522" width="92.38095238095238" height="125.21739130434781" fill="#d97706"/>
<text x="1013.8095238095237" y="426.7826086956522" text-anchor="middle" font-size="12" fill="#111827">6.00</text>
<text x="1013.8095238095237" y="595" text-anchor="end" font-size="12" fill="#111827" transform="rotate(-35 1013.8095238095237 595)">strong_marine_reserve</text>
</svg>