<svg xmlns="http://www.w3.org/2000/svg" width="1100" height="700">
<rect width="100%" height="100%" fill="#fcfcfc"/>
<text x="550.0" y="40" text-anchor="middle" font-size="24" fill="#111827">Mean Episode Reward by Algorithm</text>
<line x1="90" y1="80" x2="90" y2="620" stroke="#374151" stroke-width="2"/>
<line x1="90" y1="620" x2="1060" y2="620" stroke="#374151" stroke-width="2"/>
<text x="550.0" y="680" text-anchor="middle" font-size="18" fill="#111827">Episode</text>
<text x="25" y="350.0" text-anchor="middle" font-size="18" transform="rotate(-90 25 350.0)" fill="#111827">Mean Reward</text>
<line x1="90" y1="80.0" x2="1060" y2="80.0" stroke="#e5e7eb" stroke-width="1"/>
<text x="80" y="85.0" text-anchor="end" font-size="14" fill="#4b5563">48.9</text>
<line x1="90" y1="188.0" x2="1060" y2="188.0" stroke="#e5e7eb" stroke-width="1"/>
<text x="80" y="193.0" text-anchor="end" font-size="14" fill="#4b5563">-82.7</text>
<line x1="90" y1="296.0" x2="1060" y2="296.0" stroke="#e5e7eb" stroke-width="1"/>
<text x="80" y="301.0" text-anchor="end" font-size="14" fill="#4b5563">-214.3</text>
<line x1="90" y1="404.0" x2="1060" y2="404.0" stroke="#e5e7eb" stroke-width="1"/>
<text x="80" y="409.0" text-anchor="end" font-size="14" fill="#4b5563">-345.9</text>
<line x1="90" y1="512.0" x2="1060" y2="512.0" stroke="#e5e7eb" stroke-width="1"/>
<text x="80" y="517.0" text-anchor="end" font-size="14" fill="#4b5563">-477.5</text>
<line x1="90" y1="620.0" x2="1060" y2="620.0" stroke="#e5e7eb" stroke-width="1"/>
<text x="80" y="625.0" text-anchor="end" font-size="14" fill="#4b5563">-609.1</text>
<polyline fill="none" stroke="#0f766e" stroke-width="3" points="90.00,84.80 197.78,619.38 305.56,620.00 413.33,617.51 521.11,352.22 628.89,351.78 736.67,356.58 844.44,80.00 952.22,80.00 1060.00,84.18"/>
<rect x="90" y="60" width="18" height="18" fill="#0f766e"/>
<text x="114" y="74" font-size="14" fill="#111827">epsilon_greedy</text>
<polyline fill="none" stroke="#b45309" stroke-width="3" points="90.00,84.80 197.78,619.38 305.56,620.00 413.33,617.51 521.11,352.22 628.89,351.78 736.67,356.58 844.44,80.00 952.22,80.00 1060.00,80.00"/>
<rect x="260" y="60" width="18" height="18" fill="#b45309"/>
<text x="284" y="74" font-size="14" fill="#111827">ucb1</text>
<polyline fill="none" stroke="#2563eb" stroke-width="3" points="90.00,84.80 197.78,619.38 305.56,620.00 413.33,617.51 521.11,352.22 628.89,351.78 736.67,356.58 844.44,80.00 952.22,80.00 1060.00,80.00"/>
<rect x="430" y="60" width="18" height="18" fill="#2563eb"/>
<text x="454" y="74" font-size="14" fill="#111827">softmax</text>
</svg>