<svg xmlns="http://www.w3.org/2000/svg" width="1100" height="700">
<rect width="100%" height="100%" fill="#fcfcfc"/>
<text x="550.0" y="40" text-anchor="middle" font-size="24" fill="#111827">Collapse Flag by Policy Arm</text>
<line x1="90" y1="80" x2="90" y2="560" stroke="#374151" stroke-width="2"/>
<line x1="90" y1="560" x2="1060" y2="560" stroke="#374151" stroke-width="2"/>
<text x="550.0" y="675" text-anchor="middle" font-size="18" fill="#111827">Policy Arm</text>
<text x="25" y="350.0" text-anchor="middle" font-size="18" transform="rotate(-90 25 350.0)" fill="#111827">Collapse</text>
<rect x="136.1904761904762" y="80.0" width="92.38095238095238" height="480.0" fill="#0f766e"/>
<text x="182.3809523809524" y="72.0" text-anchor="middle" font-size="12" fill="#111827">1.00</text>
<text x="182.3809523809524" y="580" text-anchor="end" font-size="12" fill="#111827" transform="rotate(-35 182.3809523809524 580)">baseline_laissez_faire</text>
<rect x="274.76190476190476" y="560.0" width="92.38095238095238" height="0.0" fill="#b45309"/>
<text x="320.95238095238096" y="552.0" text-anchor="middle" font-size="12" fill="#111827">0.00</text>
<text x="320.95238095238096" y="580" text-anchor="end" font-size="12" fill="#111827" transform="rotate(-35 320.95238095238096 580)">moderate_taxation</text>
<rect x="413.3333333333333" y="560.0" width="92.38095238095238" height="0.0" fill="#2563eb"/>
<text x="459.5238095238095" y="552.0" text-anchor="middle" font-size="12" fill="#111827">0.00</text>
<text x="459.5238095238095" y="580" text-anchor="end" font-size="12" fill="#111827" transform="rotate(-35 459.5238095238095 580)">high_taxation</text>
<rect x="551.9047619047619" y="80.0" width="92.38095238095238" height="480.0" fill="#dc2626"/>
<text x="598.0952380952381" y="72.0" text-anchor="middle" font-size="12" fill="#111827">1.00</text>
<text x="598.0952380952381" y="580" text-anchor="end" font-size="12" fill="#111827" transform="rotate(-35 598.0952380952381 580)">hard_capacity_control</text>
<rect x="690.4761904761905" y="80.0" width="92.38095238095238" height="480.0" fill="#7c3aed"/>
<text x="736.6666666666666" y="72.0" text-anchor="middle" font-size="12" fill="#111827">1.00</text>
<text x="736.6666666666666" y="580" text-anchor="end" font-size="12" fill="#111827" transform="rotate(-35 736.6666666666666 580)">weak_capacity_control</text>
<rect x="829.047619047619" y="560.0" width="92.38095238095238" height="0.0" fill="#059669"/>
<text x="875.2380952380952" y="552.0" text-anchor="middle" font-size="12" fill="#111827">0.00</text>
<text x="875.2380952380952" y="580" text-anchor="end" font-size="12" fill="#111827" transform="rotate(-35 875.2380952380952 580)">moderate_marine_reserve</text>
<rect x="967.6190476190476" y="560.0" width="92.38095238095238" height="0.0" fill="#d97706"/>
<text x="1013.8095238095237" y="552.0" text-anchor="middle" font-size="12" fill="#111827">0.00</text>
<text x="1013.8095238095237" y="580" text-anchor="end" font-size="12" fill="#111827" transform="rotate(-35 1013.8095238095237 580)">strong_marine_reserve</text>
</svg>