<svg xmlns="http://www.w3.org/2000/svg" width="1100" height="700">
<rect width="100%" height="100%" fill="#fcfcfc"/>
<text x="550.0" y="40" text-anchor="middle" font-size="24" fill="#111827">Fish Stock Over Time by Policy Arm</text>
<line x1="90" y1="80" x2="90" y2="620" stroke="#374151" stroke-width="2"/>
<line x1="90" y1="620" x2="1060" y2="620" stroke="#374151" stroke-width="2"/>
<text x="550.0" y="680" text-anchor="middle" font-size="18" fill="#111827">Month</text>
<text x="25" y="350.0" text-anchor="middle" font-size="18" transform="rotate(-90 25 350.0)" fill="#111827">Fish Population</text>
<line x1="90" y1="80.0" x2="1060" y2="80.0" stroke="#e5e7eb" stroke-width="1"/>
<text x="80" y="85.0" text-anchor="end" font-size="14" fill="#4b5563">979.6</text>
<line x1="90" y1="188.0" x2="1060" y2="188.0" stroke="#e5e7eb" stroke-width="1"/>
<text x="80" y="193.0" text-anchor="end" font-size="14" fill="#4b5563">796.6</text>
<line x1="90" y1="296.0" x2="1060" y2="296.0" stroke="#e5e7eb" stroke-width="1"/>
<text x="80" y="301.0" text-anchor="end" font-size="14" fill="#4b5563">613.6</text>
<line x1="90" y1="404.0" x2="1060" y2="404.0" stroke="#e5e7eb" stroke-width="1"/>
<text x="80" y="409.0" text-anchor="end" font-size="14" fill="#4b5563">430.7</text>
<line x1="90" y1="512.0" x2="1060" y2="512.0" stroke="#e5e7eb" stroke-width="1"/>
<text x="80" y="517.0" text-anchor="end" font-size="14" fill="#4b5563">247.7</text>
<line x1="90" y1="620.0" x2="1060" y2="620.0" stroke="#e5e7eb" stroke-width="1"/>
<text x="80" y="625.0" text-anchor="end" font-size="14" fill="#4b5563">64.7</text>
<polyline fill="none" stroke="#0f766e" stroke-width="3" points="90.00,81.06 98.15,95.20 106.30,110.44 114.45,126.85 122.61,144.51 130.76,163.48 138.91,183.84 147.06,205.64 155.21,228.96 163.36,253.84 171.51,280.46 179.66,308.77 187.82,338.68 195.97,369.80 204.12,401.73 212.27,433.64 220.42,464.24 228.57,491.56 236.72,514.84 244.87,533.65 253.03,548.50 261.18,560.34 269.33,569.91 277.48,577.72 285.63,584.16 293.78,589.51 301.93,593.99 310.08,597.77 318.24,600.97 326.39,603.71 334.54,606.07 342.69,608.10 350.84,609.85 358.99,611.38 367.14,612.70 375.29,613.84 383.45,614.84 391.60,615.71 399.75,616.46 407.90,617.10 416.05,617.66 424.20,618.14 432.35,618.55 440.50,618.89 448.66,619.18 456.81,619.41 464.96,619.60 473.11,619.75 481.26,619.86 489.41,619.94 497.56,619.98 505.71,620.00 513.87,619.99 522.02,619.96 530.17,619.90 538.32,619.82 546.47,619.73 554.62,619.62 562.77,619.49 570.92,619.35 579.08,619.19 587.23,619.02 595.38,618.84 603.53,618.65 611.68,618.45 619.83,618.23 627.98,618.01 636.13,617.78 644.29,617.54 652.44,617.30 660.59,617.04 668.74,616.78 676.89,616.52 685.04,616.24 693.19,615.96 701.34,615.68 709.50,615.39 717.65,615.09 725.80,614.79 733.95,614.48 742.10,614.17 750.25,613.86 758.40,613.54 766.55,613.21 774.71,612.88 782.86,612.55 791.01,612.21 799.16,611.87 807.31,611.53 815.46,611.18 823.61,610.83 831.76,610.47 839.92,610.11 848.07,609.75 856.22,609.38 864.37,609.01 872.52,608.64 880.67,608.26 888.82,607.88 896.97,607.50 905.13,607.11 913.28,606.72 921.43,606.32 929.58,605.92 937.73,605.52 945.88,605.12 954.03,604.71 962.18,604.30 970.34,603.88 978.49,603.46 986.64,603.04 994.79,602.62 1002.94,602.19 1011.09,601.75 1019.24,601.32 1027.39,600.88 1035.55,600.44 1043.70,599.99 1051.85,599.54 1060.00,599.09"/>
<rect x="90" y="60" width="18" height="18" fill="#0f766e"/>
<text x="114" y="74" font-size="14" fill="#111827">baseline_laissez_faire</text>
<polyline fill="none" stroke="#b45309" stroke-width="3" points="90.00,81.06 98.15,94.64 106.30,108.69 114.45,123.24 122.61,138.29 130.76,153.87 138.91,169.97 147.06,186.60 155.21,203.77 163.36,221.49 171.51,239.75 179.66,258.60 187.82,278.08 195.97,298.14 204.12,318.75 212.27,339.75 220.42,360.99 228.57,382.39 236.72,403.56 244.87,424.35 253.03,444.49 261.18,463.05 269.33,479.88 277.48,494.93 285.63,507.97 293.78,519.10 301.93,528.53 310.08,536.47 318.24,543.20 326.39,548.94 334.54,553.85 342.69,558.07 350.84,561.71 358.99,564.86 367.14,567.58 375.29,569.94 383.45,571.99 391.60,573.77 399.75,575.30 407.90,576.63 416.05,577.77 424.20,578.75 432.35,579.59 440.50,580.29 448.66,580.88 456.81,581.37 464.96,581.76 473.11,582.07 481.26,582.30 489.41,582.47 497.56,582.57 505.71,582.61 513.87,582.60 522.02,582.54 530.17,582.44 538.32,582.30 546.47,582.12 554.62,581.91 562.77,581.66 570.92,581.39 579.08,581.08 587.23,580.75 595.38,580.40 603.53,580.03 611.68,579.63 619.83,579.22 627.98,578.78 636.13,578.33 644.29,577.87 652.44,577.39 660.59,576.89 668.74,576.38 676.89,575.86 685.04,575.32 693.19,574.77 701.34,574.21 709.50,573.64 717.65,573.06 725.80,572.47 733.95,571.87 742.10,571.26 750.25,570.64 758.40,570.01 766.55,569.38 774.71,568.73 782.86,568.08 791.01,567.42 799.16,566.75 807.31,566.07 815.46,565.39 823.61,564.69 831.76,564.00 839.92,563.29 848.07,562.58 856.22,561.86 864.37,561.13 872.52,560.39 880.67,559.65 888.82,558.91 896.97,558.15 905.13,557.39 913.28,556.62 921.43,555.85 929.58,555.07 937.73,554.28 945.88,553.48 954.03,552.68 962.18,551.87 970.34,551.06 978.49,550.24 986.64,549.41 994.79,548.57 1002.94,547.73 1011.09,546.88 1019.24,546.03 1027.39,545.16 1035.55,544.29 1043.70,543.42 1051.85,542.53 1060.00,541.64"/>
<rect x="260" y="60" width="18" height="18" fill="#b45309"/>
<text x="284" y="74" font-size="14" fill="#111827">moderate_taxation</text>
<polyline fill="none" stroke="#2563eb" stroke-width="3" points="90.00,81.06 98.15,94.28 106.30,107.61 114.45,121.07 122.61,134.63 130.76,148.32 138.91,162.11 147.06,176.01 155.21,190.03 163.36,204.14 171.51,218.36 179.66,232.67 187.82,247.07 195.97,261.65 204.12,276.36 212.27,291.19 220.42,306.12 228.57,321.10 236.72,336.05 244.87,350.92 253.03,365.66 261.18,380.23 269.33,394.47 277.48,408.33 285.63,421.77 293.78,434.75 301.93,446.88 310.08,458.10 318.24,468.42 326.39,477.84 334.54,486.40 342.69,494.06 350.84,500.86 358.99,506.86 367.14,512.13 375.29,516.74 383.45,520.76 391.60,524.25 399.75,527.27 407.90,529.89 416.05,532.16 424.20,534.12 432.35,535.80 440.50,537.25 448.66,538.47 456.81,539.51 464.96,540.37 473.11,541.08 481.26,541.66 489.41,542.10 497.56,542.43 505.71,542.66 513.87,542.80 522.02,542.85 530.17,542.82 538.32,542.72 546.47,542.55 554.62,542.32 562.77,542.04 570.92,541.70 579.08,541.32 587.23,540.90 595.38,540.43 603.53,539.92 611.68,539.38 619.83,538.80 627.98,538.20 636.13,537.56 644.29,536.90 652.44,536.21 660.59,535.49 668.74,534.76 676.89,534.00 685.04,533.22 693.19,532.42 701.34,531.60 709.50,530.76 717.65,529.91 725.80,529.04 733.95,528.15 742.10,527.25 750.25,526.34 758.40,525.41 766.55,524.47 774.71,523.51 782.86,522.54 791.01,521.56 799.16,520.56 807.31,519.56 815.46,518.54 823.61,517.51 831.76,516.47 839.92,515.42 848.07,514.35 856.22,513.28 864.37,512.20 872.52,511.10 880.67,510.00 888.82,508.88 896.97,507.76 905.13,506.62 913.28,505.48 921.43,504.33 929.58,503.16 937.73,501.99 945.88,500.80 954.03,499.61 962.18,498.41 970.34,497.20 978.49,495.97 986.64,494.74 994.79,493.50 1002.94,492.25 1011.09,490.99 1019.24,489.71 1027.39,488.43 1035.55,487.14 1043.70,485.84 1051.85,484.53 1060.00,483.21"/>
<rect x="430" y="60" width="18" height="18" fill="#2563eb"/>
<text x="454" y="74" font-size="14" fill="#111827">high_taxation</text>
<polyline fill="none" stroke="#dc2626" stroke-width="3" points="90.00,81.06 98.15,95.20 106.30,110.44 114.45,126.85 122.61,144.51 130.76,163.48 138.91,183.84 147.06,205.64 155.21,228.96 163.36,253.84 171.51,280.46 179.66,308.77 187.82,338.68 195.97,369.80 204.12,401.73 212.27,433.64 220.42,464.24 228.57,491.56 236.72,514.84 244.87,533.65 253.03,548.50 261.18,560.34 269.33,569.91 277.48,577.72 285.63,584.16 293.78,589.51 301.93,593.99 310.08,597.77 318.24,600.97 326.39,603.71 334.54,606.07 342.69,608.10 350.84,609.85 358.99,611.38 367.14,612.70 375.29,613.84 383.45,614.84 391.60,615.71 399.75,616.46 407.90,617.10 416.05,617.66 424.20,618.14 432.35,618.55 440.50,618.89 448.66,619.18 456.81,619.41 464.96,619.60 473.11,619.75 481.26,619.86 489.41,619.94 497.56,619.98 505.71,620.00 513.87,619.99 522.02,619.96 530.17,619.90 538.32,619.82 546.47,619.73 554.62,619.62 562.77,619.49 570.92,619.35 579.08,619.19 587.23,619.02 595.38,618.84 603.53,618.65 611.68,618.45 619.83,618.23 627.98,618.01 636.13,617.78 644.29,617.54 652.44,617.30 660.59,617.04 668.74,616.78 676.89,616.52 685.04,616.24 693.19,615.96 701.34,615.68 709.50,615.39 717.65,615.09 725.80,614.79 733.95,614.48 742.10,614.17 750.25,613.86 758.40,613.54 766.55,613.21 774.71,612.88 782.86,612.55 791.01,612.21 799.16,611.87 807.31,611.53 815.46,611.18 823.61,610.83 831.76,610.47 839.92,610.11 848.07,609.75 856.22,609.38 864.37,609.01 872.52,608.64 880.67,608.26 888.82,607.88 896.97,607.50 905.13,607.11 913.28,606.72 921.43,606.32 929.58,605.92 937.73,605.52 945.88,605.12 954.03,604.71 962.18,604.30 970.34,603.88 978.49,603.46 986.64,603.04 994.79,602.62 1002.94,602.19 1011.09,601.75 1019.24,601.32 1027.39,600.88 1035.55,600.44 1043.70,599.99 1051.85,599.54 1060.00,599.09"/>
<rect x="600" y="60" width="18" height="18" fill="#dc2626"/>
<text x="624" y="74" font-size="14" fill="#111827">hard_capacity_control</text>
<polyline fill="none" stroke="#7c3aed" stroke-width="3" points="90.00,81.06 98.15,95.20 106.30,110.44 114.45,126.85 122.61,144.51 130.76,163.48 138.91,183.84 147.06,205.64 155.21,228.96 163.36,253.84 171.51,280.46 179.66,308.77 187.82,338.68 195.97,369.80 204.12,401.73 212.27,433.64 220.42,464.24 228.57,491.56 236.72,514.84 244.87,533.65 253.03,548.50 261.18,560.34 269.33,569.91 277.48,577.72 285.63,584.16 293.78,589.51 301.93,593.99 310.08,597.77 318.24,600.97 326.39,603.71 334.54,606.07 342.69,608.10 350.84,609.85 358.99,611.38 367.14,612.70 375.29,613.84 383.45,614.84 391.60,615.71 399.75,616.46 407.90,617.10 416.05,617.66 424.20,618.14 432.35,618.55 440.50,618.89 448.66,619.18 456.81,619.41 464.96,619.60 473.11,619.75 481.26,619.86 489.41,619.94 497.56,619.98 505.71,620.00 513.87,619.99 522.02,619.96 530.17,619.90 538.32,619.82 546.47,619.73 554.62,619.62 562.77,619.49 570.92,619.35 579.08,619.19 587.23,619.02 595.38,618.84 603.53,618.65 611.68,618.45 619.83,618.23 627.98,618.01 636.13,617.78 644.29,617.54 652.44,617.30 660.59,617.04 668.74,616.78 676.89,616.52 685.04,616.24 693.19,615.96 701.34,615.68 709.50,615.39 717.65,615.09 725.80,614.79 733.95,614.48 742.10,614.17 750.25,613.86 758.40,613.54 766.55,613.21 774.71,612.88 782.86,612.55 791.01,612.21 799.16,611.87 807.31,611.53 815.46,611.18 823.61,610.83 831.76,610.47 839.92,610.11 848.07,609.75 856.22,609.38 864.37,609.01 872.52,608.64 880.67,608.26 888.82,607.88 896.97,607.50 905.13,607.11 913.28,606.72 921.43,606.32 929.58,605.92 937.73,605.52 945.88,605.12 954.03,604.71 962.18,604.30 970.34,603.88 978.49,603.46 986.64,603.04 994.79,602.62 1002.94,602.19 1011.09,601.75 1019.24,601.32 1027.39,600.88 1035.55,600.44 1043.70,599.99 1051.85,599.54 1060.00,599.09"/>
<rect x="770" y="60" width="18" height="18" fill="#7c3aed"/>
<text x="794" y="74" font-size="14" fill="#111827">weak_capacity_control</text>
<polyline fill="none" stroke="#059669" stroke-width="3" points="90.00,80.47 98.15,93.81 106.30,108.00 114.45,123.12 122.61,139.17 130.76,156.20 138.91,174.24 147.06,193.32 155.21,213.41 163.36,234.44 171.51,256.37 179.66,279.28 187.82,302.90 195.97,326.97 204.12,351.26 212.27,375.23 220.42,397.94 228.57,419.05 236.72,438.32 244.87,455.33 253.03,470.05 261.18,482.61 269.33,493.21 277.48,502.19 285.63,509.85 293.78,516.41 301.93,522.06 310.08,526.93 318.24,531.14 326.39,534.78 334.54,537.95 342.69,540.69 350.84,543.06 358.99,545.12 367.14,546.90 375.29,548.43 383.45,549.74 391.60,550.85 399.75,551.79 407.90,552.58 416.05,553.23 424.20,553.75 432.35,554.15 440.50,554.46 448.66,554.67 456.81,554.80 464.96,554.85 473.11,554.82 481.26,554.74 489.41,554.59 497.56,554.39 505.71,554.14 513.87,553.85 522.02,553.50 530.17,553.12 538.32,552.71 546.47,552.26 554.62,551.77 562.77,551.26 570.92,550.71 579.08,550.15 587.23,549.55 595.38,548.94 603.53,548.30 611.68,547.64 619.83,546.96 627.98,546.26 636.13,545.54 644.29,544.81 652.44,544.06 660.59,543.30 668.74,542.52 676.89,541.72 685.04,540.92 693.19,540.10 701.34,539.26 709.50,538.42 717.65,537.56 725.80,536.69 733.95,535.81 742.10,534.92 750.25,534.02 758.40,533.11 766.55,532.18 774.71,531.25 782.86,530.31 791.01,529.35 799.16,528.39 807.31,527.42 815.46,526.43 823.61,525.44 831.76,524.44 839.92,523.43 848.07,522.41 856.22,521.38 864.37,520.35 872.52,519.30 880.67,518.24 888.82,517.18 896.97,516.10 905.13,515.02 913.28,513.93 921.43,512.83 929.58,511.72 937.73,510.60 945.88,509.47 954.03,508.33 962.18,507.19 970.34,506.03 978.49,504.87 986.64,503.70 994.79,502.52 1002.94,501.33 1011.09,500.13 1019.24,498.92 1027.39,497.70 1035.55,496.47 1043.70,495.23 1051.85,493.99 1060.00,492.73"/>
<rect x="940" y="60" width="18" height="18" fill="#059669"/>
<text x="964" y="74" font-size="14" fill="#111827">moderate_marine_reserve</text>
<polyline fill="none" stroke="#d97706" stroke-width="3" points="90.00,80.00 98.15,92.64 106.30,105.89 114.45,119.76 122.61,134.25 130.76,149.36 138.91,165.09 147.06,181.41 155.21,198.22 163.36,215.43 171.51,232.97 179.66,250.77 187.82,268.85 195.97,287.01 204.12,304.77 212.27,321.92 220.42,338.27 228.57,353.70 236.72,368.10 244.87,381.36 253.03,393.36 261.18,404.12 269.33,413.67 277.48,422.09 285.63,429.45 293.78,435.83 301.93,441.37 310.08,446.18 318.24,450.34 326.39,453.95 334.54,457.06 342.69,459.73 350.84,462.02 358.99,463.97 367.14,465.62 375.29,466.99 383.45,468.11 391.60,469.02 399.75,469.72 407.90,470.24 416.05,470.60 424.20,470.81 432.35,470.88 440.50,470.83 448.66,470.66 456.81,470.39 464.96,470.02 473.11,469.56 481.26,469.02 489.41,468.40 497.56,467.71 505.71,466.96 513.87,466.14 522.02,465.27 530.17,464.35 538.32,463.37 546.47,462.35 554.62,461.29 562.77,460.19 570.92,459.04 579.08,457.86 587.23,456.65 595.38,455.40 603.53,454.12 611.68,452.82 619.83,451.48 627.98,450.12 636.13,448.73 644.29,447.32 652.44,445.88 660.59,444.42 668.74,442.94 676.89,441.44 685.04,439.92 693.19,438.38 701.34,436.81 709.50,435.23 717.65,433.63 725.80,432.02 733.95,430.38 742.10,428.73 750.25,427.06 758.40,425.38 766.55,423.67 774.71,421.96 782.86,420.22 791.01,418.47 799.16,416.71 807.31,414.93 815.46,413.13 823.61,411.32 831.76,409.49 839.92,407.65 848.07,405.80 856.22,403.93 864.37,402.04 872.52,400.14 880.67,398.23 888.82,396.30 896.97,394.35 905.13,392.39 913.28,390.42 921.43,388.43 929.58,386.43 937.73,384.42 945.88,382.38 954.03,380.34 962.18,378.28 970.34,376.20 978.49,374.11 986.64,372.00 994.79,369.89 1002.94,367.76 1011.09,365.62 1019.24,363.46 1027.39,361.30 1035.55,359.12 1043.70,356.93 1051.85,354.73 1060.00,352.51"/>
<rect x="1110" y="60" width="18" height="18" fill="#d97706"/>
<text x="1134" y="74" font-size="14" fill="#111827">strong_marine_reserve</text>
</svg>